<svg xmlns="http://www.w3.org/2000/svg" id="icon" xmlns:xlink="http://www.w3.org/1999/xlink" version="1.1" x="0px" y="0px" viewBox="0 0 91 113.75" enable-background="new 0 0 91 91" xml:space="preserve"><g><path d="M63.878,30.241c-2.197-1.816-5.016-2.816-7.936-2.816c-3.375,0-6.643,1.346-8.963,3.689   c-0.418,0.422-0.809,0.875-1.174,1.365c-2.842-3.779-7.58-5.721-12.285-4.865c-3.895,0.707-6.955,2.85-9.098,6.363   c-3.018,4.957-3.264,9.736-0.73,14.209c1.357,2.398,3.117,4.73,5.375,7.127c4.141,4.404,9.045,8.586,15.441,13.162   c0.406,0.287,0.842,0.432,1.295,0.432c0.701,0,1.176-0.354,1.41-0.529c5.682-4.055,10.342-7.961,14.248-11.943   c2.211-2.252,4.719-5.021,6.553-8.475c0.785-1.479,1.682-3.467,1.627-5.738C69.524,37.335,67.585,33.304,63.878,30.241z"/></g></svg>