<svg xmlns="http://www.w3.org/2000/svg" xmlns:xlink="http://www.w3.org/1999/xlink" version="1.1" x="0px" y="0px" viewBox="0 0 100 125" id="icon" style="enable-background:new 0 0 100 100;" xml:space="preserve"><path d="M26.5,16.5v73.2c0,0.5-0.4,0.8-0.8,0.8h-2.9c-0.5,0-0.8-0.4-0.8-0.8V16.5c-1-0.7-1.6-1.9-1.6-3.2  c0-2.5,2.3-4.5,5-3.8c1.3,0.3,2.4,1.4,2.7,2.7C28.4,14,27.7,15.6,26.5,16.5z"/><path d="M78.1,20.7v30.8c0,0.8-0.5,1.4-1.2,1.9c-1.7,1.2-10.9,5.8-22.2,0.3c-7.6-3.7-16.2-4.9-23.6-2  c-0.8,0.3-1.6-0.3-1.6-1.1v-31c0-0.5,0.3-0.9,0.7-1.1c7.3-3.4,15.3-2.4,23.3,1.2C68,26.3,71,22.5,76.8,19.9  C77.4,19.6,78.1,20,78.1,20.7z"/></svg>